<?xml version="1.0" standalone="no"?>
<!DOCTYPE svg PUBLIC "-//W3C//DTD SVG 20010904//EN"
 "http://www.w3.org/TR/2001/REC-SVG-20010904/DTD/svg10.dtd">
<svg version="1.0" xmlns="http://www.w3.org/2000/svg"
 width="24.000000pt" height="24.000000pt" viewBox="0 0 24.000000 24.000000"
 preserveAspectRatio="xMidYMid meet">

<g transform="translate(0.000000,24.000000) scale(0.100000,-0.100000)"
fill="#000000" stroke="none">
<path d="M50 204 c-52 -25 -54 -27 -32 -37 15 -7 21 -16 17 -26 -3 -8 -9 -34
-12 -58 -5 -39 -4 -43 15 -43 11 0 34 -8 51 -17 30 -17 32 -17 62 -1 17 10 40
18 51 18 19 0 20 4 15 43 -3 24 -9 51 -13 60 -3 10 -1 17 5 17 6 0 11 -9 11
-20 0 -11 5 -20 10 -20 6 0 10 14 10 30 0 27 -6 34 -52 55 -66 31 -71 31 -138
-1z m128 -102 c4 -27 -32 -72 -57 -72 -23 0 -61 41 -61 65 0 32 9 36 65 33 44
-3 50 -6 53 -26z"/>
</g>
</svg>
